HIERARCHY
ROOT pelvis
{
  OFFSET 0 100 0
  CHANNELS 6 Xposition Yposition Zposition Zrotation Xrotation Yrotation
  JOINT pelvis_right_femur
  {
    OFFSET -10.78128 -3.44521 -0.5502486
    CHANNELS 3 Zrotation Xrotation Yrotation
    JOINT right_femur_tibia
    {
      OFFSET -0.8047443 -44.0398 -0.1307829
      CHANNELS 3 Zrotation Xrotation Yrotation
      JOINT right_tibia_foot
      {
        OFFSET 3.006224 -47.83518 -5
        CHANNELS 3 Zrotation Xrotation Yrotation
        End Site
        {
          OFFSET 0 -5 15
        }
      }
    }
  }
  JOINT pelvis_left_femur
  {
    OFFSET 10.78128 -3.44521 -0.5502486
    CHANNELS 3 Zrotation Xrotation Yrotation
    JOINT left_femur_tibia
    {
      OFFSET 0.8047443 -44.0398 -0.1307829
      CHANNELS 3 Zrotation Xrotation Yrotation
      JOINT left_tibia_foot
      {
        OFFSET -4.370144 -48.10324 -4.275266
        CHANNELS 3 Zrotation Xrotation Yrotation
        End Site
        {
          OFFSET 0 -5 15
        }
      }
    }
  }
  JOINT pelvis_spine1
  {
    OFFSET 0 6.468898 -3.129235
    CHANNELS 3 Zrotation Xrotation Yrotation
    JOINT spine1
    {
      OFFSET 0 23.15396 4.99043
      CHANNELS 3 Zrotation Xrotation Yrotation
      JOINT spine2
      {
        OFFSET 0 20.79997 -5.064912
        CHANNELS 3 Zrotation Xrotation Yrotation
        JOINT neck
        {
          OFFSET 0 14.38658 9.616178
          CHANNELS 3 Zrotation Xrotation Yrotation
          End Site
          {
            OFFSET 0 20 0
          }
        }
      }
      JOINT right_manubrium
      {
        OFFSET -5.722621 16.35077 3.967754
        CHANNELS 3 Zrotation Xrotation Yrotation
        JOINT right_clavicle
        {
          OFFSET -13.16364 1.694482 -4.693211
          CHANNELS 3 Zrotation Xrotation Yrotation
          JOINT right_humerus
          {
            OFFSET -28.5034 -0.3100689 -2.792744
            CHANNELS 3 Zrotation Xrotation Yrotation
            JOINT right_radius
            {
              OFFSET -25.15693 0.02248979 -1.271978
              CHANNELS 3 Zrotation Xrotation Yrotation
              End Site
              {
                OFFSET -15 0 0
              }
            }
          }
        }
      }
      JOINT left_manubrium
      {
        OFFSET 5.722621 16.35077 3.967754
        CHANNELS 3 Zrotation Xrotation Yrotation
        JOINT left_clavicle
        {
          OFFSET 13.16364 1.694482 -4.693211
          CHANNELS 3 Zrotation Xrotation Yrotation
          JOINT left_humerus
          {
            OFFSET 29.39168 -1.063119 -2.237045
            CHANNELS 3 Zrotation Xrotation Yrotation
            JOINT left_radius
            {
              OFFSET 24.59957 -0.9528479 0.9047498
              CHANNELS 3 Zrotation Xrotation Yrotation
              End Site
              {
                OFFSET 15 -0 -0
              }
            }
          }
        }
      }
    }
  }
}
MOTION
Frames: 15
Frame Time: 0.0416666666667
-585.1832 107.5559 2929.173 -3.042114 -6.53163 -29.68078 -0.02075145 -15.38976 -2.072762 -0 35.93582 -0 -7.611387 6.179165 -1.990947 -5.287402 8.156572 -10.39895 -0 11.04324 -0 0.176667 -16.56965 17.32145 3.288594 -0.7776431 5.908836 2.208809 13.16463 -8.839443 3.105059 22.85835 0.2929366 -4.6579 -26.5549 8.302996 -12.4215 -26.81267 11.4772 103.2389 18.4385 -20.3167 -0 0 11.60264 -19.02859 10.54638 5.978741 1.776841 -21.96801 -2.333194 -85.51071 13.97302 20.86967 0 0 -22.4525 11.83533 18.89941 -5.339485
-587.5304 106.8269 2933.777 -2.151364 -5.636602 -28.97094 -0.3148275 -20.21608 -3.05511 -0 25.5915 -0 -6.99257 4.346453 -2.271117 -5.520724 10.7179 -9.844833 -0 9.956349 -0 1.019778 -18.29216 16.60548 3.402466 -0.8160235 5.49876 2.400644 12.66983 -9.061271 3.263449 23.16312 0.5305276 -4.885443 -27.78845 8.938836 -13.55877 -26.00688 11.34251 104.7561 17.9741 -21.75237 -0 0 9.195874 -19.19375 9.808966 5.424303 2.378015 -22.35991 -1.795541 -84.34984 14.30517 18.01311 0 0 -25.5591 12.67154 19.07396 -6.654176
-590.0696 105.601 2938.601 -1.359839 -5.022651 -28.39399 -0.4297234 -23.54464 -4.036334 -0 16.04956 -0 -6.619603 3.810111 -2.345082 -5.795286 12.90279 -9.235049 -0 10.27456 -0 1.537602 -19.7315 15.94998 3.448236 -0.9037016 5.146475 2.551303 12.24537 -9.25084 3.342173 23.37868 0.8245888 -4.93475 -28.77468 9.427946 -14.42479 -25.26336 11.24965 105.9351 17.54038 -23.02274 -0 0 7.166248 -19.38763 9.108234 4.959972 2.998572 -22.8197 -1.434133 -83.35217 14.47578 15.46509 0 0 -28.42439 13.43556 19.06299 -7.826776
-592.8371 104.1342 2943.723 -0.9013532 -4.654876 -27.94691 -0.07333217 -25.51202 -4.698079 -0 8.799628 -0 -6.58619 4.28728 -2.362311 -5.927951 14.81808 -8.658501 -0 12.16911 -0 1.459045 -20.57707 15.30669 3.417277 -1.022575 4.877557 2.647555 11.94072 -9.397081 3.330558 23.49281 1.15128 -4.791291 -29.40058 9.714809 -14.91272 -24.62594 11.20682 106.6709 17.1905 -24.05579 -0 0 5.675977 -19.57628 8.485488 4.591386 3.585285 -23.32159 -1.304888 -82.60592 14.48173 13.43469 0 0 -30.76575 14.07138 18.86953 -8.7802
-595.8613 102.7336 2949.158 -0.8988026 -4.415334 -27.63619 0.8973513 -26.27561 -4.756556 -0 4.620126 -0 -6.876527 5.146554 -2.437703 -5.780055 16.39713 -8.206322 -0 15.79616 -0 0.6040069 -20.525 14.61189 3.314583 -1.14461 4.717011 2.678836 11.80035 -9.485818 3.232787 23.50371 1.468753 -4.474729 -29.58409 9.761131 -14.95149 -24.15224 11.21655 106.8909 16.98207 -24.76236 -0 0 4.874188 -19.72522 8.000777 4.33414 4.063166 -23.8082 -1.433712 -82.19487 14.34443 12.14732 0 0 -32.26572 14.51597 18.53445 -9.427172
-599.1521 101.7085 2954.868 -1.336884 -4.205573 -27.4905 2.404113 -25.82203 -4.078375 -0 3.58639 -0 -7.36425 5.700879 -2.623218 -5.309173 17.34187 -7.921619 -0 21.36718 -0 -0.9813849 -19.30496 13.86215 3.161365 -1.239572 4.685248 2.640199 11.85135 -9.502491 3.070039 23.42032 1.722383 -4.042963 -29.30284 9.561 -14.53585 -23.90837 11.27485 106.579 16.95894 -25.04703 -0 0 4.864123 -19.80859 7.726833 4.218144 4.348781 -24.19599 -1.801208 -82.17716 14.10625 11.79884 0 0 -32.65144 14.70792 18.1337 -9.680678
-602.6781 101.3161 2960.768 -2.054877 -4.029948 -27.55273 4.123813 -23.91263 -2.751965 -0 5.140426 -0 -7.836818 5.426906 -2.908175 -4.605745 17.12153 -7.752328 -0 29.0636 -0 -2.930568 -16.77859 13.17805 2.992876 -1.286027 4.792534 2.536247 12.09 -9.438324 2.878184 23.26025 1.855483 -3.5879 -28.61501 9.152765 -13.74918 -23.95589 11.37099 105.7949 17.12868 -24.83234 -0 0 5.665531 -19.81532 7.732276 4.282911 4.372823 -24.39371 -2.33412 -82.56295 13.82114 12.49351 0 0 -31.80038 14.59961 17.76169 -9.471692
-606.3489 101.6952 2966.736 -2.774655 -4.01913 -27.8604 5.549321 -20.26705 -1.081431 -0 8.179235 -0 -8.051423 4.114552 -3.225294 -3.884281 15.09382 -7.551889 -0 38.6841 -0 -4.629433 -13.16559 12.78536 2.849982 -1.279322 5.032283 2.384049 12.47461 -9.297751 2.700034 23.04636 1.824874 -3.218132 -27.65724 8.618482 -12.7591 -24.32915 11.48826 104.6771 17.45065 -24.09573 -0 0 7.183692 -19.74924 8.056157 4.55918 4.105253 -24.33207 -2.913861 -83.29983 13.54234 14.18328 0 0 -29.82536 14.17401 17.50369 -8.776405
-610.0215 102.7901 2972.614 -3.208235 -4.338157 -28.41552 6.226195 -14.9926 0.56072 -0 11.26039 -0 -7.831937 1.929954 -3.466065 -3.358096 10.81979 -7.177547 -0 49.03048 -0 -5.542235 -9.268493 12.89099 2.764734 -1.230176 5.37793 2.210081 12.93497 -9.100401 2.571776 22.80266 1.618071 -3.023333 -26.60297 8.060225 -11.76379 -25.01076 11.60731 103.4072 17.8532 -22.89786 -0 0 9.216425 -19.62362 8.685749 5.043779 3.570444 -23.99306 -3.413093 -84.28167 13.3081 16.65297 0 0 -27.06033 13.46135 17.40614 -7.643918
-613.5431 104.3079 2978.231 -3.244465 -5.00479 -29.15773 6.083337 -8.897597 1.916918 -0 13.06145 -0 -7.190303 -0.6967171 -3.52263 -3.029313 4.488842 -6.617372 -0 57.56667 -0 -5.60848 -6.294674 13.55693 2.745507 -1.155559 5.790522 2.038672 13.40065 -8.872074 2.507748 22.54821 1.262324 -3.031416 -25.58816 7.556194 -10.90151 -25.9277 11.71282 102.1339 18.27555 -21.3666 -0 0 11.52707 -19.45554 9.556207 5.690967 2.839652 -23.41928 -3.751528 -85.39023 13.12712 19.59514 0 0 -23.91027 12.53859 17.45938 -6.1954
-616.8061 105.7884 2983.48 -3.063397 -5.813687 -29.98836 5.515254 -3.099739 2.839571 -0 12.99372 -0 -6.380989 -3.379361 -3.347637 -2.627626 -2.926729 -5.955645 -0 61.33892 -0 -5.271699 -5.064478 14.66285 2.773597 -1.07192 6.23532 1.88039 13.82966 -8.631131 2.494705 22.29013 0.8143904 -3.194497 -24.65791 7.127849 -10.1938 -26.98256 11.80014 100.9078 18.69456 -19.63559 -0 0 13.94564 -19.26424 10.57808 6.43651 2.001955 -22.69315 -3.928875 -86.54466 12.97332 22.74092 0 0 -20.67104 11.50005 17.60468 -4.575742
-619.7776 106.7949 2988.379 -2.983086 -6.479149 -30.83416 5.050885 1.819042 3.22126 -0 11.45661 -0 -5.745895 -6.014148 -2.976658 -1.832856 -10.12971 -5.215938 -0 58.9469 -0 -5.019953 -5.335235 15.93289 2.815738 -0.9955142 6.692527 1.731982 14.21283 -8.384134 2.501662 22.02214 0.3377672 -3.420765 -23.78172 6.747996 -9.57454 -28.0933 11.87531 99.69079 19.11094 -17.7971 -0 0 16.40601 -19.07164 11.66902 7.231018 1.136493 -21.90404 -4.005008 -87.71409 12.79889 25.93192 0 0 -17.48135 10.42285 17.7603 -2.897896
-622.5001 107.0942 2993.071 -3.157202 -6.789932 -31.66539 4.943849 5.988646 3.085315 -0 9.400174 -0 -5.424742 -8.671929 -2.482665 -0.5533819 -16.19738 -4.356591 -0 51.43776 -0 -4.995272 -6.141653 17.06041 2.84001 -0.9440435 7.15273 1.585616 14.55666 -8.132473 2.495314 21.73191 -0.1117018 -3.617463 -22.91143 6.374876 -8.961586 -29.20246 11.94895 98.42176 19.52124 -15.91247 -0 0 18.894 -18.90224 12.76043 8.046771 0.3073896 -21.1314 -4.055468 -88.8884 12.55636 29.08115 0 0 -14.40822 9.362234 17.84716 -1.236824
-625.0727 106.6936 2997.75 -3.476157 -6.639942 -32.46866 5.093222 9.700454 2.638831 -0 7.700593 -0 -5.274458 -11.33251 -1.918923 1.005666 -20.80966 -3.411289 -0 41.23389 -0 -5.053718 -6.655081 17.87495 2.824487 -0.9344014 7.605319 1.437017 14.86618 -7.880312 2.4504 21.41239 -0.4878323 -3.714144 -22.02653 5.979265 -8.305637 -30.26038 12.02959 97.07596 19.90552 -14.05122 -0 0 21.37312 -18.7813 13.78477 8.861322 -0.4274918 -20.44476 -4.141666 -90.0439 12.21735 32.09583 0 0 -11.53757 8.36922 17.80584 0.3395672
-627.6164 105.7673 3002.601 -3.710545 -6.036647 -33.23097 5.218928 13.04219 2.158842 -0 6.936594 -0 -5.060794 -13.74989 -1.303744 2.453055 -24.00216 -2.561968 -0 30.73999 -0 -4.996225 -6.583714 18.37877 2.760193 -0.9767232 8.030964 1.288352 15.13897 -7.637827 2.355118 21.07061 -0.7551913 -3.67144 -21.14861 5.555453 -7.604237 -31.21065 12.11995 95.69035 20.2333 -12.31462 -0 0 23.74502 -18.72962 14.66863 9.641285 -1.014293 -19.9033 -4.299689 -91.12979 11.78494 34.83872 0 0 -8.997708 7.501667 17.60995 1.748643
